# xmcd
#
# Track frame offsets: 
#        150
#        16646
#        35301
#        55907
#        68809
#        90704
#        109922
#        132799
#        149260
#        167525
#        183499
#        199549
#        217647
#        237215
#        251935
#
# Disc length: 3550 seconds
#
# Revision: 0
# Processed by: cddbd v1.5.2PL0 Copyright (c) Steve Scherf et al.
# Submitted via: ExactAudioCopyFreeDBPlugin 1.0
#
DISCID=c50ddc0f
DTITLE=Various Artist - Various Artists - 世界上最动听的歌-芊芊女人心 CD2
DYEAR=2004
DGENRE=Pop
TTITLE0=M2M - The Day You Went Away
TTITLE1=T.C.L - Diggin' On You
TTITLE2=Nelly Furtado - Turn Off The Light
TTITLE3=Spice Girls - Wannabe
TTITLE4=The Cranberries - When You're Gone
TTITLE5=The Corrs - All The Love In The World
TTITLE6=Sinéad O'Connor - Nothing Compares
TTITLE7=Dido - Thank You
TTITLE8=Britney Spears - Born To Make You Happy
TTITLE9=Jennifer Lopez - Play
TTITLE10=Christina Aguilera - Reflection
TTITLE11=Texas - Summer Son
TTITLE12=Jessica Simpson - I Wanna Love You Forever
TTITLE13=The Cardigans - Lovefool
TTITLE14=Destiny's Child - So Good
EXTD=
EXTT0=
EXTT1=
EXTT2=
EXTT3=
EXTT4=
EXTT5=
EXTT6=
EXTT7=
EXTT8=
EXTT9=
EXTT10=
EXTT11=
EXTT12=
EXTT13=
EXTT14=
PLAYORDER=
